<svg viewBox="0 0 100 100" xmlns="http://www.w3.org/2000/svg">
  <defs>
    <linearGradient id="g" x1="0" y1="0" x2="1" y2="1">
      <stop offset="0%" stop-color="#60a5fa"/>
      <stop offset="100%" stop-color="#1e3a8a"/>
    </linearGradient>
    <clipPath id="clip">
      <circle cx="50" cy="50" r="48"/>
    </clipPath>
  </defs>

  <circle cx="50" cy="50" r="48" fill="url(#g)"/>

  <g clip-path="url(#clip)">
    <rect x="58" y="-14" width="52" height="52" rx="10" fill="#e2e8f0" opacity="0.16" transform="rotate(28 84 12)"/>
    <circle cx="10" cy="88" r="30" fill="#94a3b8" opacity="0.22"/>
    <polygon points="86,58 108,96 64,96" fill="#cbd5e1" opacity="0.14"/>
    <circle cx="86" cy="18" r="14" fill="#ffffff" opacity="0.10"/>
    <rect x="-12" y="6" width="34" height="34" rx="8" fill="#1e293b" opacity="0.12" transform="rotate(-18 5 23)"/>
  </g>

  <rect x="27" y="56" width="11" height="22" rx="2.5" fill="#ffffff"/>
  <rect x="44.5" y="44" width="11" height="34" rx="2.5" fill="#ffffff"/>
  <rect x="62" y="30" width="11" height="48" rx="2.5" fill="#ffffff"/>

  <path d="M27 50 L44 38 L61 26" stroke="#e2e8f0" stroke-width="4" stroke-linecap="round" stroke-linejoin="round" fill="none"/>
  <path d="M52 25 L61 26 L60 35" stroke="#e2e8f0" stroke-width="4" stroke-linecap="round" stroke-linejoin="round" fill="none"/>

  <circle cx="20" cy="70" r="2.6" fill="#cbd5e1" opacity="0.85"/>
  <circle cx="16" cy="60" r="1.8" fill="#94a3b8" opacity="0.6"/>
  <circle cx="80" cy="66" r="2.2" fill="#cbd5e1" opacity="0.7"/>
</svg>
